<svg width="24" height="20" viewBox="0 0 24 20" fill="none" xmlns="http://www.w3.org/2000/svg">
<path d="M11.214 14.1668C11.214 10.8757 14.2788 8.085 18.179 8.085C19.0843 8.085 19.9897 8.29967 20.8262 8.58667C20.8262 3.864 16.1595 0 10.5175 0C4.73667 0 0 4.00633 0 8.80017C0 11.8767 1.95067 14.7385 4.87667 16.17V19.39C4.87667 19.7482 5.15433 19.9617 5.572 19.7482L9.751 17.6015H10.7963C11.284 17.6015 11.7717 17.6015 12.1893 17.458C11.4928 16.4558 11.214 15.3113 11.214 14.1668ZM18.179 9.8735C15.2542 9.8735 12.8858 11.7343 12.8858 14.1668C12.8858 16.5993 15.2542 18.6025 18.109 18.6025H18.4578L19.1543 18.8895L20.2685 19.6047C20.6173 19.6047 20.965 19.6047 20.965 19.1753V17.8873C22.358 17.1722 23.3333 15.7407 23.3333 14.1668C23.3333 11.7343 21.035 9.8735 18.109 9.8735H18.179Z" fill="#626262"/>
</svg>
