<svg width="28" height="28" viewBox="0 0 28 28" fill="none" xmlns="http://www.w3.org/2000/svg">
<g clip-path="url(#clip0_9_111)">
<path d="M22.484 11.5174V5.49158C22.4837 5.27271 22.3965 5.06292 22.2417 4.90827C22.0868 4.75361 21.8769 4.66675 21.658 4.66675H15.0547C14.9463 4.66675 14.8391 4.68808 14.739 4.72953C14.6389 4.77099 14.548 4.83174 14.4714 4.90834C14.3948 4.98493 14.3341 5.07586 14.2926 5.17593C14.2512 5.276 14.2298 5.38326 14.2298 5.49158V11.3692C15.0981 10.8408 16.0638 10.4924 17.0695 10.3449C18.9567 10.0579 20.8847 10.4753 22.484 11.5174ZM23.8035 20.3491L26.2803 22.1807C26.5542 22.3625 26.7446 22.6457 26.8097 22.9678C26.8748 23.29 26.8092 23.6248 26.6274 23.8987C26.4456 24.1725 26.1625 24.3629 25.8403 24.428C25.5182 24.4931 25.1833 24.4275 24.9095 24.2457L24.8103 24.1711L22.3347 22.3301H22.2857C21.6807 22.9096 20.9588 23.353 20.1684 23.6307C19.378 23.9084 18.5374 24.0138 17.7029 23.94C16.8684 23.8662 16.0594 23.6148 15.33 23.2028C14.6006 22.7907 13.9677 22.2274 13.4739 21.5507C12.98 20.874 12.6365 20.0995 12.4665 19.2792C12.2964 18.4589 12.3038 17.6117 12.4879 16.7945C12.6721 15.9772 13.0289 15.2088 13.5344 14.5407C14.0398 13.8726 14.6823 13.3204 15.4187 12.9209H15.3522C15.9746 12.5671 16.6575 12.3321 17.3658 12.2279C18.6626 12.0312 19.9878 12.2752 21.1295 12.9209H21.0548C21.8516 13.3537 22.5366 13.9662 23.0554 14.7098C23.5743 15.4534 23.9127 16.3077 24.0438 17.2049V17.1629C24.2052 18.2112 24.0794 19.2837 23.6798 20.2662L23.8035 20.3491ZM16.9318 20.8204C17.4837 21.0806 18.0997 21.1727 18.7028 21.0841H18.6783C19.0837 21.0286 19.474 20.893 19.8263 20.685C20.1787 20.477 20.486 20.2008 20.7304 19.8727C20.9748 19.5445 21.1514 19.171 21.2498 18.7738C21.3481 18.3766 21.3663 17.9639 21.3033 17.5596C21.2222 17.0332 21.0063 16.5367 20.6766 16.1184C20.3469 15.7001 19.9145 15.3743 19.4216 15.1726C18.9287 14.9708 18.3919 14.9 17.8635 14.9671C17.3352 15.0342 16.8331 15.2368 16.4063 15.5554C15.9794 15.8739 15.6422 16.2974 15.4274 16.7848C15.2126 17.2722 15.1276 17.8069 15.1807 18.3368C15.2337 18.8668 15.4229 19.3741 15.73 19.8092C16.037 20.2444 16.4515 20.5928 16.933 20.8204H16.9318ZM4.326 15.3966H10.9293C10.5181 16.5369 10.3787 17.7574 10.5221 18.961C10.6655 20.1647 11.0878 21.3183 11.7553 22.3301V22.8247C11.7555 22.9333 11.7342 23.0407 11.6928 23.141C11.6513 23.2413 11.5905 23.3324 11.5137 23.4092C11.437 23.4859 11.3459 23.5467 11.2456 23.5882C11.1453 23.6296 11.0378 23.6509 10.9293 23.6507H4.326C4.10693 23.6507 3.89684 23.5637 3.74193 23.4088C3.58703 23.2539 3.5 23.0438 3.5 22.8247V16.2214C3.5 16.0027 3.5869 15.7929 3.74159 15.6382C3.89628 15.4835 4.10724 15.3966 4.326 15.3966ZM4.326 4.66675H10.9293C11.3843 4.66675 11.7553 5.03658 11.7553 5.49158V12.0949C11.7553 12.5499 11.3855 12.9209 10.9293 12.9209H4.326C4.21749 12.9211 4.11001 12.8998 4.00972 12.8584C3.90944 12.8169 3.81832 12.7561 3.74159 12.6793C3.66486 12.6026 3.60402 12.5115 3.56256 12.4112C3.52111 12.3109 3.49985 12.2034 3.5 12.0949V5.49158C3.5 5.03658 3.871 4.66675 4.326 4.66675Z" fill="#626262"/>
</g>
<defs>
<clipPath id="clip0_9_111">
<rect width="28" height="28" fill="white"/>
</clipPath>
</defs>
</svg>
