<svg width="40" height="40" viewBox="0 0 40 40" fill="none" xmlns="http://www.w3.org/2000/svg">
<rect x="0.5" y="0.5" width="39" height="39" rx="19.5" stroke="#E5E7EB"/>
<path d="M29 29H11V11H29V29Z" stroke="#E5E7EB"/>
<path d="M16.625 15.7812C16.625 15.0043 15.9957 14.375 15.2188 14.375H13.5312C12.7543 14.375 12.125 15.0043 12.125 15.7812V17.4688C12.125 18.2457 12.7543 18.875 13.5312 18.875H15.2188C15.9957 18.875 16.625 18.2457 16.625 17.4688V15.7812ZM16.625 22.5312C16.625 21.7543 15.9957 21.125 15.2188 21.125H13.5312C12.7543 21.125 12.125 21.7543 12.125 22.5312V24.2188C12.125 24.9957 12.7543 25.625 13.5312 25.625H15.2188C15.9957 25.625 16.625 24.9957 16.625 24.2188V22.5312ZM17.75 15.7812V17.4688C17.75 18.2457 18.3793 18.875 19.1562 18.875H20.8438C21.6207 18.875 22.25 18.2457 22.25 17.4688V15.7812C22.25 15.0043 21.6207 14.375 20.8438 14.375H19.1562C18.3793 14.375 17.75 15.0043 17.75 15.7812ZM22.25 22.5312C22.25 21.7543 21.6207 21.125 20.8438 21.125H19.1562C18.3793 21.125 17.75 21.7543 17.75 22.5312V24.2188C17.75 24.9957 18.3793 25.625 19.1562 25.625H20.8438C21.6207 25.625 22.25 24.9957 22.25 24.2188V22.5312ZM23.375 15.7812V17.4688C23.375 18.2457 24.0043 18.875 24.7812 18.875H26.4688C27.2457 18.875 27.875 18.2457 27.875 17.4688V15.7812C27.875 15.0043 27.2457 14.375 26.4688 14.375H24.7812C24.0043 14.375 23.375 15.0043 23.375 15.7812ZM27.875 22.5312C27.875 21.7543 27.2457 21.125 26.4688 21.125H24.7812C24.0043 21.125 23.375 21.7543 23.375 22.5312V24.2188C23.375 24.9957 24.0043 25.625 24.7812 25.625H26.4688C27.2457 25.625 27.875 24.9957 27.875 24.2188V22.5312Z" fill="white" stroke="#626262"/>
</svg>
