<svg width="40" height="40" viewBox="0 0 40 40" fill="none" xmlns="http://www.w3.org/2000/svg">
<rect x="0.5" y="0.5" width="39" height="39" rx="19.5" stroke="#E5E7EB"/>
<path d="M27.3098 13.644L20.5495 12.1651C19.6161 11.9609 18.6938 12.5521 18.4896 13.4855L16.2713 23.626C16.0671 24.5594 16.6582 25.4817 17.5917 25.6858L24.352 27.1648C25.2854 27.3689 26.2076 26.7778 26.4118 25.8444L28.6302 15.7039C28.8344 14.7704 28.2432 13.8482 27.3098 13.644Z" fill="white" stroke="#626262"/>
<path d="M22.7582 12.1799H15.838C14.8825 12.1799 14.1079 12.9545 14.1079 13.91V24.2903C14.1079 25.2458 14.8825 26.0204 15.838 26.0204H22.7582C23.7137 26.0204 24.4883 25.2458 24.4883 24.2903V13.91C24.4883 12.9545 23.7137 12.1799 22.7582 12.1799Z" fill="white" stroke="#626262"/>
<path d="M19.2572 13.1609L12.4721 14.522C11.5353 14.71 10.9282 15.6217 11.1162 16.5586L13.1578 26.7362C13.3457 27.673 14.2575 28.2801 15.1943 28.0921L21.9794 26.7311C22.9162 26.5431 23.5233 25.6313 23.3354 24.6945L21.2937 14.5169C21.1058 13.5801 20.194 12.973 19.2572 13.1609Z" fill="white" stroke="#626262"/>
</svg>
