<svg width="1246" height="465" viewBox="0 0 1246 465" fill="none" xmlns="http://www.w3.org/2000/svg">
<path d="M438.279 106.039C456.035 101.08 474.141 99.7278 485.915 102.381C498.362 105.185 517.118 110.698 527.908 125.949C532.091 131.85 535.885 141.658 539.215 150.275L539.222 150.292C539.508 151.033 539.791 151.767 540.07 152.486L540.102 152.565L540.166 152.621C541.657 153.892 543.64 153.975 545.562 153.618C547.49 153.26 549.442 152.444 550.94 151.819L551.116 151.746H551.117C564.163 146.294 577.137 147.056 590.423 147.842C591.273 147.892 592.135 147.942 592.987 147.991L593.275 148.008L593.338 147.727L593.517 146.93C595.797 136.761 597.094 130.981 600.066 121.613C606.916 116.588 616.931 114.858 627.165 114.834C637.43 114.81 647.855 116.501 655.387 118.236C658.188 118.881 660.143 120.253 661.481 122.187C662.826 124.131 663.565 126.668 663.88 129.665C664.511 135.668 663.432 143.386 662.284 151.567C662.045 153.27 661.804 154.991 661.575 156.719L661.568 156.77L661.577 156.822C661.779 157.96 662.285 158.685 663.053 159.018C663.793 159.34 664.697 159.258 665.62 158.991C667.469 158.456 669.66 157.097 671.438 155.998C672.044 155.623 672.603 155.277 673.093 154.996C673.587 154.713 673.991 154.507 674.292 154.403V154.404C678.012 153.125 684.892 151.946 694.169 150.92C703.436 149.895 715.065 149.027 728.267 148.36C754.669 147.028 787.348 146.505 819.961 147.16C852.575 147.815 885.115 149.647 911.244 153.024C924.309 154.713 935.763 156.787 944.818 159.29C953.89 161.797 960.497 164.721 963.925 168.075L964.406 168.547L964.498 167.879C964.532 167.633 964.57 167.388 964.604 167.143C964.593 167.307 964.581 167.473 964.569 167.642C964.241 172.584 963.848 179.488 963.586 187.332C963.063 202.954 963.06 222.327 965.139 237.369C944.441 257.368 909.543 271.597 868.762 281.676C827.912 291.771 781.214 297.691 737.099 301.096C692.985 304.5 651.463 305.39 620.969 305.429C605.722 305.448 593.232 305.254 584.555 305.056C580.216 304.956 576.83 304.856 574.529 304.78C573.379 304.742 572.501 304.712 571.909 304.689C571.613 304.678 571.389 304.669 571.239 304.663C571.164 304.66 571.108 304.658 571.07 304.656C571.052 304.655 571.038 304.655 571.028 304.654C571.024 304.654 571.02 304.654 571.018 304.654C571.015 304.654 571.014 304.656 571 304.989L571.014 304.654H570.987C570.978 304.654 570.964 304.653 570.946 304.653C570.91 304.653 570.855 304.652 570.783 304.65C570.64 304.647 570.428 304.64 570.159 304.626C569.62 304.598 568.847 304.543 567.922 304.433C566.069 304.211 563.609 303.767 561.167 302.884C558.879 302.056 555.589 300.544 552.303 299.032C548.553 297.308 544.793 295.578 542.606 294.918L542.417 294.861L542.274 294.997C541.289 295.934 540.352 296.897 539.443 297.832C537.772 299.551 536.199 301.168 534.549 302.404C533.006 303.56 531.414 304.369 529.639 304.614L529.281 304.655C522.088 305.326 514.886 305.191 507.66 305.056C505.756 305.02 503.851 304.985 501.945 304.964H501.941L456.681 304.994L398.717 305.023C395.85 305.019 392.924 305.076 389.963 305.133C371.441 305.488 351.517 305.858 334.798 291.883L334.613 291.728L334.407 291.852C313.257 304.442 295.269 309.384 277.331 308.275C259.383 307.166 241.444 299.999 220.394 288.287L220.22 288.19L220.051 288.294L208.085 295.643L208.072 295.651L208.061 295.661C189.334 309.579 166.851 311.281 144.351 306.663C121.847 302.044 99.3619 291.108 80.6865 279.803L80.6797 279.799L80.6719 279.794L80.1816 279.524C69.9229 273.728 61.3744 260.125 57.9971 243.599C54.5692 226.825 56.4844 207.102 67.2969 189.621C82.0841 165.713 106.513 151.389 131.42 146.814C156.333 142.238 181.676 147.423 198.306 162.465L198.667 162.791L198.849 162.34L203.395 151.065C211.603 150.045 221.747 149.051 231.912 148.962C242.164 148.872 252.414 149.703 260.717 152.337V152.336C261.327 152.53 261.978 152.99 262.653 153.665C263.325 154.337 264 155.201 264.661 156.169C265.983 158.106 267.224 160.424 268.254 162.381L268.579 163L268.864 162.361L273.923 150.991C283.435 148.574 294.839 148.481 305.806 148.393C310.94 148.352 315.977 148.312 320.662 148.031L320.892 148.018L320.964 147.8C321.141 147.264 321.313 146.743 321.48 146.236C323.927 138.835 325.439 134.259 328.535 127.478C334.962 124.462 345.758 122.799 356.751 122.328C367.799 121.855 378.976 122.588 386.006 124.322C386.399 124.419 386.892 124.724 387.456 125.208C388.012 125.685 388.604 126.309 389.197 126.998C390.087 128.031 390.963 129.194 391.698 130.201L392.382 131.145L392.408 131.182L392.657 131.526L392.938 131.207C403.194 119.542 420.524 110.998 438.279 106.039Z" fill="#010101" stroke="black" stroke-width="0.678418"/>
<path d="M635.479 129.713C638.954 129.563 645.706 127.523 646.962 136.063C644.739 155.843 639.465 185.113 636.422 205.243C634.112 220.533 628.888 258.673 625.749 270.743C621.552 277.423 614.574 275.383 609.571 273.943C604.076 272.373 603.229 270.203 600.104 261.053C578.09 279.973 553.743 281.843 531.168 266.343C525.566 261.873 518.589 253.803 515.492 242.253C513.747 235.693 513.301 227.873 514.258 220.593C521.479 167.253 578.495 152.413 598.884 167.733C601.457 169.663 602.778 171.163 605.425 169.003C611.095 154.293 605.259 127.863 619.168 129.723C624.148 130.393 630.393 129.843 635.479 129.713Z" fill="#FDFDFD"/>
<path d="M573.598 195.343C580.01 194.143 587.977 194.363 593.831 200.823C598.365 205.833 600.173 216.763 596.896 226.033C591.921 240.083 583.167 242.603 575.624 245.013C544.432 250.073 540.884 204.303 573.598 195.343Z" fill="#010101"/>
<path d="M456.055 117.018C470.631 114.329 491.485 116.756 505.403 127.563C513.513 133.853 517.466 140.543 521.019 156.863C516.491 197.213 493.285 209.593 477.337 223.323C472.477 227.513 466.922 229.723 462.65 236.743L462.522 239.053C471.036 249.053 505.316 232.053 509.182 250.623C508.85 254.423 506.167 270.663 505.27 271.673C499.093 278.653 480.508 276.173 474.12 276.173L425.338 276.103C418.512 276.143 393.088 277.923 388.84 272.973C388.757 268.693 391.523 253.883 392.356 248.723C409.28 230.463 463.723 205.703 476.711 170.403C476.872 169.233 477.452 165.383 476.877 164.173C467.069 143.363 442.653 152.833 430.663 161.803C421.849 168.383 411.521 169.503 407.25 145.013C407.936 125.643 447.085 118.653 456.055 117.018Z" fill="#FDFDFD"/>
<path d="M134.608 161.853C223.472 154.373 213.565 263.053 135.552 277.003C118.001 278.663 93.4989 278.003 78.7635 254.523C66.7583 233.013 74.6369 205.903 85.2526 192.143C100.895 171.863 116.756 165.153 134.608 161.853Z" fill="#FDFDFD"/>
<path d="M134.652 193.943C164.747 187.843 170.186 232.393 136.736 245.073C101.527 248.263 102.186 202.283 134.652 193.943Z" fill="#010101"/>
<path d="M705.359 161.843C792.89 154.873 779.805 265.493 702.611 276.993C686.622 279.783 661.074 276.513 647.533 254.653C640.063 242.593 640.197 218.953 646.732 204.923C661.17 173.933 686.047 164.523 705.359 161.843Z" fill="#FDFDFD"/>
<path d="M704.489 193.923C710.472 192.893 718.513 194.273 723.967 200.083C728.657 205.073 730.024 215.503 726.678 224.773C721.32 239.623 712.01 242.503 703.974 245.233C668.907 247.873 672.189 201.253 704.489 193.923Z" fill="#010101"/>
<path d="M214.482 164.353C219.111 163.243 244.203 162.283 247.744 167.053C249.496 176.443 240.886 210.363 239.701 222.943C239.24 227.843 239.266 232.863 240.815 236.943C242.542 241.493 245.721 243.173 248.273 243.983C285.228 255.823 274.149 182.953 284.963 166.983C286.522 164.683 288.875 164.093 290.698 163.763C293.394 163.293 314.614 162.583 316.62 163.863C317.597 164.483 318.222 165.043 318.611 167.123C319.948 174.283 317.303 185.583 316.155 192.453C313.955 212.413 310.077 237.243 302.043 249.333C282.288 279.063 252.033 281.133 229.07 274.293C220.534 271.643 209.664 264.983 204.383 248.943C198.004 229.573 209.957 192.303 211.586 170.423C211.739 168.353 213.719 165.493 214.482 164.353Z" fill="#FDFDFD"/>
<path d="M357.188 138.143C362.187 137.783 368.888 135.283 372.731 141.743C373.849 150.593 370.255 151.523 370.6 160.683C375.851 169.753 389.931 156.833 394.312 168.303C394.381 173.373 392.158 187.683 390.833 191.613C385.659 198.563 371.944 196.483 365.298 196.333C363.623 202.573 360.175 221.163 359.895 228.013C358.776 255.113 375.373 236.533 380.518 248.663C380.827 253.843 379.441 260.643 378.622 265.863C377.9 269.353 376.804 273.633 375.175 274.063C360.106 278.193 311.191 283.193 324.349 222.323C328.89 201.313 332.054 158.793 337.618 141.993C342.115 136.673 351.721 138.143 357.188 138.143Z" fill="#FDFDFD"/>
<mask id="path-11-outside-1_91_91" maskUnits="userSpaceOnUse" x="508" y="113" width="442" height="218" fill="black">
<rect fill="white" x="508" y="113" width="442" height="218"/>
<path d="M562.352 277.04C556.504 277.04 551.064 276.224 546.032 274.592C541.136 272.824 536.988 270.104 533.588 266.432C530.324 262.624 528.08 257.728 526.856 251.744C525.632 245.76 525.7 238.484 527.06 229.916C527.74 226.788 528.284 224.068 528.692 221.756C529.236 219.444 529.848 216.792 530.528 213.8C532.568 205.776 535.22 198.84 538.484 192.992C541.884 187.008 545.828 182.112 550.316 178.304C554.804 174.496 559.7 171.64 565.004 169.736C570.308 167.832 575.884 166.88 581.732 166.88C587.444 166.88 592.748 167.764 597.644 169.532C602.676 171.164 606.484 173.476 609.068 176.468L617.636 135.668C617.908 134.172 618.656 132.88 619.88 131.792C621.24 130.704 622.668 130.16 624.164 130.16H661.904C663.4 130.16 664.556 130.704 665.372 131.792C666.324 132.88 666.664 134.172 666.392 135.668L637.832 269.492C637.56 270.988 636.744 272.28 635.384 273.368C634.16 274.456 632.8 275 631.304 275H596.624C595.128 275 593.904 274.456 592.952 273.368C592.136 272.28 591.864 270.988 592.136 269.492L593.156 264.8C589.076 268.472 584.656 271.464 579.896 273.776C575.272 275.952 569.424 277.04 562.352 277.04ZM584.996 240.524C587.58 240.524 589.688 240.048 591.32 239.096C592.952 238.144 594.244 236.784 595.196 235.016C596.284 233.248 597.168 231.14 597.848 228.692C598.664 225.564 599.276 223.048 599.684 221.144C600.092 219.104 600.5 216.588 600.908 213.596C601.316 211.42 601.316 209.584 600.908 208.088C600.5 206.592 599.616 205.436 598.256 204.62C597.032 203.804 595.264 203.396 592.952 203.396C590.504 203.396 588.464 203.872 586.832 204.824C585.2 205.776 583.908 207.136 582.956 208.904C582.004 210.672 581.12 212.78 580.304 215.228C579.76 217.268 579.216 219.512 578.672 221.96C578.128 224.408 577.72 226.652 577.448 228.692C577.176 231.14 577.108 233.248 577.244 235.016C577.516 236.784 578.264 238.144 579.488 239.096C580.712 240.048 582.548 240.524 584.996 240.524ZM697.223 277.04C691.375 277.04 685.935 276.224 680.903 274.592C676.007 272.824 671.859 270.104 668.459 266.432C665.195 262.624 662.951 257.728 661.727 251.744C660.503 245.76 660.571 238.484 661.931 229.916C662.611 226.788 663.155 224.068 663.563 221.756C664.107 219.444 664.719 216.792 665.399 213.8C667.439 205.776 670.159 198.84 673.559 192.992C676.959 187.008 680.903 182.112 685.391 178.304C690.015 174.496 695.115 171.64 700.691 169.736C706.267 167.832 712.251 166.88 718.643 166.88C726.395 166.88 732.379 167.832 736.595 169.736C740.811 171.64 744.211 174.088 746.795 177.08L747.407 174.428C747.679 172.932 748.427 171.64 749.651 170.552C751.011 169.464 752.439 168.92 753.935 168.92H788.411C789.907 168.92 791.063 169.464 791.879 170.552C792.831 171.64 793.171 172.932 792.899 174.428L772.703 269.492C772.431 270.988 771.615 272.28 770.255 273.368C769.031 274.456 767.671 275 766.175 275H731.495C729.999 275 728.775 274.456 727.823 273.368C727.007 272.28 726.735 270.988 727.007 269.492L728.027 264.8C723.947 268.472 719.527 271.464 714.767 273.776C710.143 275.952 704.295 277.04 697.223 277.04ZM719.867 240.524C722.451 240.524 724.559 240.048 726.191 239.096C727.823 238.144 729.115 236.784 730.067 235.016C731.155 233.248 732.039 231.14 732.719 228.692C733.535 225.564 734.147 223.048 734.555 221.144C734.963 219.104 735.371 216.588 735.779 213.596C736.187 211.42 736.187 209.584 735.779 208.088C735.371 206.592 734.487 205.436 733.127 204.62C731.903 203.804 730.135 203.396 727.823 203.396C725.375 203.396 723.335 203.872 721.703 204.824C720.071 205.776 718.779 207.136 717.827 208.904C716.875 210.672 715.991 212.78 715.175 215.228C714.631 217.268 714.087 219.512 713.543 221.96C712.999 224.408 712.591 226.652 712.319 228.692C712.047 231.14 711.979 233.248 712.115 235.016C712.387 236.784 713.135 238.144 714.359 239.096C715.583 240.048 717.419 240.524 719.867 240.524ZM802.723 313.76C801.091 313.76 799.935 313.012 799.255 311.516C798.711 310.156 798.915 308.796 799.867 307.436L824.551 268.268L804.763 175.244C804.491 173.612 804.899 172.184 805.987 170.96C807.211 169.6 808.911 168.92 811.087 168.92H843.523C845.563 168.92 846.923 169.464 847.603 170.552C848.419 171.64 848.895 172.728 849.031 173.816L856.987 220.328L885.139 173.816C885.819 172.592 886.771 171.504 887.995 170.552C889.355 169.464 891.055 168.92 893.095 168.92H929.203C931.107 168.92 932.263 169.668 932.671 171.164C933.079 172.524 932.943 173.884 932.263 175.244L846.379 308.864C845.699 310.088 844.679 311.176 843.319 312.128C841.959 313.216 840.259 313.76 838.219 313.76H802.723Z"/>
</mask>
<path d="M562.352 277.04C556.504 277.04 551.064 276.224 546.032 274.592C541.136 272.824 536.988 270.104 533.588 266.432C530.324 262.624 528.08 257.728 526.856 251.744C525.632 245.76 525.7 238.484 527.06 229.916C527.74 226.788 528.284 224.068 528.692 221.756C529.236 219.444 529.848 216.792 530.528 213.8C532.568 205.776 535.22 198.84 538.484 192.992C541.884 187.008 545.828 182.112 550.316 178.304C554.804 174.496 559.7 171.64 565.004 169.736C570.308 167.832 575.884 166.88 581.732 166.88C587.444 166.88 592.748 167.764 597.644 169.532C602.676 171.164 606.484 173.476 609.068 176.468L617.636 135.668C617.908 134.172 618.656 132.88 619.88 131.792C621.24 130.704 622.668 130.16 624.164 130.16H661.904C663.4 130.16 664.556 130.704 665.372 131.792C666.324 132.88 666.664 134.172 666.392 135.668L637.832 269.492C637.56 270.988 636.744 272.28 635.384 273.368C634.16 274.456 632.8 275 631.304 275H596.624C595.128 275 593.904 274.456 592.952 273.368C592.136 272.28 591.864 270.988 592.136 269.492L593.156 264.8C589.076 268.472 584.656 271.464 579.896 273.776C575.272 275.952 569.424 277.04 562.352 277.04ZM584.996 240.524C587.58 240.524 589.688 240.048 591.32 239.096C592.952 238.144 594.244 236.784 595.196 235.016C596.284 233.248 597.168 231.14 597.848 228.692C598.664 225.564 599.276 223.048 599.684 221.144C600.092 219.104 600.5 216.588 600.908 213.596C601.316 211.42 601.316 209.584 600.908 208.088C600.5 206.592 599.616 205.436 598.256 204.62C597.032 203.804 595.264 203.396 592.952 203.396C590.504 203.396 588.464 203.872 586.832 204.824C585.2 205.776 583.908 207.136 582.956 208.904C582.004 210.672 581.12 212.78 580.304 215.228C579.76 217.268 579.216 219.512 578.672 221.96C578.128 224.408 577.72 226.652 577.448 228.692C577.176 231.14 577.108 233.248 577.244 235.016C577.516 236.784 578.264 238.144 579.488 239.096C580.712 240.048 582.548 240.524 584.996 240.524ZM697.223 277.04C691.375 277.04 685.935 276.224 680.903 274.592C676.007 272.824 671.859 270.104 668.459 266.432C665.195 262.624 662.951 257.728 661.727 251.744C660.503 245.76 660.571 238.484 661.931 229.916C662.611 226.788 663.155 224.068 663.563 221.756C664.107 219.444 664.719 216.792 665.399 213.8C667.439 205.776 670.159 198.84 673.559 192.992C676.959 187.008 680.903 182.112 685.391 178.304C690.015 174.496 695.115 171.64 700.691 169.736C706.267 167.832 712.251 166.88 718.643 166.88C726.395 166.88 732.379 167.832 736.595 169.736C740.811 171.64 744.211 174.088 746.795 177.08L747.407 174.428C747.679 172.932 748.427 171.64 749.651 170.552C751.011 169.464 752.439 168.92 753.935 168.92H788.411C789.907 168.92 791.063 169.464 791.879 170.552C792.831 171.64 793.171 172.932 792.899 174.428L772.703 269.492C772.431 270.988 771.615 272.28 770.255 273.368C769.031 274.456 767.671 275 766.175 275H731.495C729.999 275 728.775 274.456 727.823 273.368C727.007 272.28 726.735 270.988 727.007 269.492L728.027 264.8C723.947 268.472 719.527 271.464 714.767 273.776C710.143 275.952 704.295 277.04 697.223 277.04ZM719.867 240.524C722.451 240.524 724.559 240.048 726.191 239.096C727.823 238.144 729.115 236.784 730.067 235.016C731.155 233.248 732.039 231.14 732.719 228.692C733.535 225.564 734.147 223.048 734.555 221.144C734.963 219.104 735.371 216.588 735.779 213.596C736.187 211.42 736.187 209.584 735.779 208.088C735.371 206.592 734.487 205.436 733.127 204.62C731.903 203.804 730.135 203.396 727.823 203.396C725.375 203.396 723.335 203.872 721.703 204.824C720.071 205.776 718.779 207.136 717.827 208.904C716.875 210.672 715.991 212.78 715.175 215.228C714.631 217.268 714.087 219.512 713.543 221.96C712.999 224.408 712.591 226.652 712.319 228.692C712.047 231.14 711.979 233.248 712.115 235.016C712.387 236.784 713.135 238.144 714.359 239.096C715.583 240.048 717.419 240.524 719.867 240.524ZM802.723 313.76C801.091 313.76 799.935 313.012 799.255 311.516C798.711 310.156 798.915 308.796 799.867 307.436L824.551 268.268L804.763 175.244C804.491 173.612 804.899 172.184 805.987 170.96C807.211 169.6 808.911 168.92 811.087 168.92H843.523C845.563 168.92 846.923 169.464 847.603 170.552C848.419 171.64 848.895 172.728 849.031 173.816L856.987 220.328L885.139 173.816C885.819 172.592 886.771 171.504 887.995 170.552C889.355 169.464 891.055 168.92 893.095 168.92H929.203C931.107 168.92 932.263 169.668 932.671 171.164C933.079 172.524 932.943 173.884 932.263 175.244L846.379 308.864C845.699 310.088 844.679 311.176 843.319 312.128C841.959 313.216 840.259 313.76 838.219 313.76H802.723Z" fill="#FDFDFD"/>
<path d="M546.032 274.592L540.258 290.581C540.433 290.645 540.61 290.705 540.787 290.763L546.032 274.592ZM533.588 266.432L520.681 277.495C520.822 277.66 520.966 277.822 521.114 277.982L533.588 266.432ZM526.856 251.744L543.511 248.337L526.856 251.744ZM527.06 229.916L510.448 226.305C510.38 226.618 510.321 226.934 510.27 227.251L527.06 229.916ZM528.692 221.756L512.144 217.862C512.071 218.173 512.006 218.487 511.951 218.801L528.692 221.756ZM530.528 213.8L514.052 209.611C514.017 209.751 513.983 209.891 513.951 210.032L530.528 213.8ZM538.484 192.992L523.703 184.594C523.682 184.631 523.661 184.669 523.64 184.707L538.484 192.992ZM550.316 178.304L539.317 165.341H539.317L550.316 178.304ZM597.644 169.532L591.87 185.521C592.045 185.585 592.222 185.645 592.399 185.703L597.644 169.532ZM609.068 176.468L596.202 187.579C600.427 192.471 607.06 194.544 613.318 192.928C619.576 191.312 624.377 186.287 625.705 179.962L609.068 176.468ZM617.636 135.668L634.273 139.162C634.305 139.011 634.334 138.86 634.362 138.709L617.636 135.668ZM619.88 131.792L609.26 118.517C609.031 118.701 608.806 118.89 608.586 119.086L619.88 131.792ZM665.372 131.792L651.772 141.992C652.028 142.333 652.297 142.665 652.578 142.986L665.372 131.792ZM666.392 135.668L683.018 139.216C683.054 139.047 683.087 138.878 683.118 138.709L666.392 135.668ZM637.832 269.492L621.206 265.944C621.17 266.112 621.137 266.281 621.106 266.451L637.832 269.492ZM635.384 273.368L624.764 260.093C624.535 260.277 624.31 260.466 624.09 260.662L635.384 273.368ZM592.952 273.368L579.352 283.568C579.608 283.909 579.877 284.241 580.158 284.562L592.952 273.368ZM592.136 269.492L575.524 265.881C575.483 266.07 575.445 266.26 575.41 266.451L592.136 269.492ZM593.156 264.8L609.768 268.411C611.335 261.201 608.073 253.803 601.692 250.098C595.311 246.393 587.268 247.228 581.784 252.164L593.156 264.8ZM579.896 273.776L587.135 289.158C587.198 289.128 587.261 289.098 587.323 289.067L579.896 273.776ZM595.196 235.016L580.718 226.106C580.546 226.385 580.383 226.668 580.228 226.956L595.196 235.016ZM597.848 228.692L614.228 233.242C614.252 233.156 614.275 233.069 614.297 232.983L597.848 228.692ZM599.684 221.144L616.307 224.706C616.323 224.63 616.339 224.554 616.354 224.478L599.684 221.144ZM600.908 213.596L584.199 210.463C584.147 210.74 584.102 211.019 584.064 211.299L600.908 213.596ZM600.908 208.088L584.507 212.561L584.507 212.561L600.908 208.088ZM598.256 204.62L588.826 218.765C589.05 218.914 589.278 219.058 589.51 219.197L598.256 204.62ZM586.832 204.824L595.398 219.508H595.398L586.832 204.824ZM582.956 208.904L597.924 216.964L597.924 216.964L582.956 208.904ZM580.304 215.228L564.176 209.852C564.067 210.181 563.967 210.513 563.878 210.848L580.304 215.228ZM577.448 228.692L560.597 226.445C560.581 226.568 560.566 226.691 560.552 226.814L577.448 228.692ZM577.244 235.016L560.294 236.32C560.327 236.748 560.376 237.176 560.442 237.601L577.244 235.016ZM562.352 277.04V260.04C558.099 260.04 554.446 259.449 551.277 258.421L546.032 274.592L540.787 290.763C547.682 292.999 554.909 294.04 562.352 294.04V277.04ZM546.032 274.592L551.806 258.602C549.36 257.719 547.54 256.479 546.062 254.882L533.588 266.432L521.114 277.982C526.436 283.729 532.912 287.929 540.258 290.581L546.032 274.592ZM533.588 266.432L546.495 255.368C545.479 254.183 544.282 252.104 543.511 248.337L526.856 251.744L510.201 255.151C511.878 263.352 515.169 271.065 520.681 277.495L533.588 266.432ZM526.856 251.744L543.511 248.337C542.829 245.002 542.686 239.913 543.85 232.581L527.06 229.916L510.27 227.251C508.714 237.055 508.435 246.518 510.201 255.151L526.856 251.744ZM527.06 229.916L543.672 233.527C544.384 230.253 544.976 227.304 545.433 224.71L528.692 221.756L511.951 218.801C511.592 220.831 511.096 223.322 510.448 226.305L527.06 229.916ZM528.692 221.756L545.24 225.649C545.796 223.285 546.418 220.59 547.105 217.567L530.528 213.8L513.951 210.032C513.278 212.994 512.676 215.602 512.144 217.862L528.692 221.756ZM530.528 213.8L547.004 217.989C548.762 211.073 550.93 205.575 553.328 201.277L538.484 192.992L523.64 184.707C519.51 192.105 516.374 200.479 514.052 209.611L530.528 213.8ZM538.484 192.992L553.265 201.39C555.844 196.85 558.578 193.588 561.315 191.266L550.316 178.304L539.317 165.341C533.078 170.635 527.924 177.166 523.703 184.594L538.484 192.992ZM550.316 178.304L561.315 191.266C564.317 188.719 567.448 186.921 570.748 185.736L565.004 169.736L559.26 153.736C551.952 156.359 545.291 160.273 539.317 165.341L550.316 178.304ZM565.004 169.736L570.748 185.736C574.14 184.518 577.767 183.88 581.732 183.88V166.88V149.88C574.001 149.88 566.476 151.145 559.26 153.736L565.004 169.736ZM581.732 166.88V183.88C585.667 183.88 588.997 184.484 591.87 185.521L597.644 169.532L603.418 153.542C596.499 151.044 589.221 149.88 581.732 149.88V166.88ZM597.644 169.532L592.399 185.703C593.889 186.186 594.859 186.662 595.451 187.021C595.742 187.198 595.931 187.34 596.045 187.434C596.157 187.527 596.201 187.578 596.202 187.579L609.068 176.468L621.934 165.356C616.743 159.346 609.907 155.637 602.889 153.361L597.644 169.532ZM609.068 176.468L625.705 179.962L634.273 139.162L617.636 135.668L600.999 132.174L592.431 172.974L609.068 176.468ZM617.636 135.668L634.362 138.709C634.154 139.852 633.739 141.013 633.113 142.094C632.495 143.162 631.787 143.953 631.174 144.498L619.88 131.792L608.586 119.086C604.756 122.49 601.916 127.097 600.91 132.627L617.636 135.668ZM619.88 131.792L630.5 145.067C629.991 145.473 629.17 146.017 628.023 146.454C626.846 146.902 625.529 147.16 624.164 147.16V130.16V113.16C618.193 113.16 613.117 115.432 609.26 118.517L619.88 131.792ZM624.164 130.16V147.16H661.904V130.16V113.16H624.164V130.16ZM661.904 130.16V147.16C660.574 147.16 658.696 146.91 656.654 145.95C654.559 144.964 652.919 143.521 651.772 141.992L665.372 131.792L678.972 121.592C674.592 115.752 668.133 113.16 661.904 113.16V130.16ZM665.372 131.792L652.578 142.986C651.469 141.719 650.453 140.002 649.901 137.903C649.356 135.832 649.419 133.987 649.666 132.627L666.392 135.668L683.118 138.709C684.261 132.421 682.728 125.811 678.166 120.597L665.372 131.792ZM666.392 135.668L649.766 132.12L621.206 265.944L637.832 269.492L654.458 273.04L683.018 139.216L666.392 135.668ZM637.832 269.492L621.106 266.451C621.362 265.043 621.893 263.692 622.643 262.505C623.374 261.347 624.172 260.567 624.764 260.093L635.384 273.368L646.004 286.643C650.072 283.388 653.446 278.648 654.558 272.533L637.832 269.492ZM635.384 273.368L624.09 260.662C624.775 260.053 625.784 259.347 627.132 258.808C628.504 258.259 629.936 258 631.304 258V275V292C637.371 292 642.661 289.645 646.678 286.074L635.384 273.368ZM631.304 275V258H596.624V275V292H631.304V275ZM596.624 275V258C597.976 258 599.686 258.256 601.488 259.057C603.306 259.865 604.728 261.01 605.746 262.173L592.952 273.368L580.158 284.562C584.464 289.484 590.421 292 596.624 292V275ZM592.952 273.368L606.552 263.168C607.586 264.547 608.381 266.225 608.771 268.081C609.152 269.891 609.061 271.44 608.862 272.533L592.136 269.492L575.41 266.451C574.402 271.995 575.345 278.226 579.352 283.568L592.952 273.368ZM592.136 269.492L608.748 273.103L609.768 268.411L593.156 264.8L576.544 261.189L575.524 265.881L592.136 269.492ZM593.156 264.8L581.784 252.164C578.843 254.81 575.743 256.894 572.469 258.484L579.896 273.776L587.323 289.067C593.569 286.034 599.309 282.134 604.528 277.436L593.156 264.8ZM579.896 273.776L572.657 258.394C570.993 259.177 567.824 260.04 562.352 260.04V277.04V294.04C571.024 294.04 579.551 292.726 587.135 289.158L579.896 273.776ZM584.996 240.524V257.524C589.529 257.524 594.869 256.706 599.886 253.78L591.32 239.096L582.754 224.412C584.507 223.389 585.631 223.524 584.996 223.524V240.524ZM591.32 239.096L599.886 253.78C604.393 251.151 607.825 247.419 610.164 243.076L595.196 235.016L580.228 226.956C580.417 226.605 580.725 226.141 581.188 225.653C581.656 225.16 582.193 224.739 582.754 224.412L591.32 239.096ZM595.196 235.016L609.674 243.925C611.759 240.537 613.213 236.895 614.228 233.242L597.848 228.692L581.468 224.142C581.123 225.384 580.809 225.958 580.718 226.106L595.196 235.016ZM597.848 228.692L614.297 232.983C615.141 229.748 615.824 226.96 616.307 224.706L599.684 221.144L583.061 217.582C582.728 219.135 582.187 221.379 581.399 224.401L597.848 228.692ZM599.684 221.144L616.354 224.478C616.854 221.979 617.316 219.092 617.752 215.893L600.908 213.596L584.064 211.299C583.684 214.083 583.33 216.229 583.014 217.81L599.684 221.144ZM600.908 213.596L617.617 216.729C618.31 213.033 618.619 208.418 617.309 203.615L600.908 208.088L584.507 212.561C584.248 211.613 584.214 210.911 584.214 210.587C584.214 210.266 584.248 210.205 584.199 210.463L600.908 213.596ZM600.908 208.088L617.309 203.615C615.719 197.784 612.026 193.056 607.002 190.042L598.256 204.62L589.51 219.197C588.516 218.601 587.409 217.699 586.435 216.425C585.456 215.146 584.843 213.792 584.507 212.561L600.908 208.088ZM598.256 204.62L607.686 190.475C602.493 187.013 596.853 186.396 592.952 186.396V203.396V220.396C593.154 220.396 592.846 220.418 592.189 220.266C591.524 220.113 590.269 219.726 588.826 218.765L598.256 204.62ZM592.952 203.396V186.396C588.364 186.396 583.158 187.286 578.266 190.14L586.832 204.824L595.398 219.508C593.77 220.458 592.644 220.396 592.952 220.396V203.396ZM586.832 204.824L578.266 190.14C573.759 192.769 570.327 196.501 567.988 200.844L582.956 208.904L597.924 216.964C597.735 217.315 597.427 217.779 596.964 218.267C596.496 218.759 595.959 219.181 595.398 219.508L586.832 204.824ZM582.956 208.904L567.988 200.844C566.464 203.674 565.219 206.725 564.176 209.852L580.304 215.228L596.432 220.604C597.021 218.835 597.544 217.67 597.924 216.964L582.956 208.904ZM580.304 215.228L563.878 210.848C563.263 213.155 562.663 215.634 562.077 218.272L578.672 221.96L595.267 225.648C595.769 223.39 596.257 221.381 596.73 219.608L580.304 215.228ZM578.672 221.96L562.077 218.272C561.449 221.098 560.946 223.831 560.597 226.445L577.448 228.692L594.299 230.939C594.494 229.473 594.807 227.718 595.267 225.648L578.672 221.96ZM577.448 228.692L560.552 226.814C560.204 229.944 560.052 233.173 560.294 236.32L577.244 235.016L594.194 233.712C594.164 233.323 594.148 232.335 594.344 230.569L577.448 228.692ZM577.244 235.016L560.442 237.601C561.265 242.953 563.873 248.487 569.051 252.515L579.488 239.096L589.925 225.677C591.141 226.623 592.165 227.824 592.905 229.169C593.624 230.476 593.925 231.644 594.046 232.431L577.244 235.016ZM579.488 239.096L569.051 252.515C574.549 256.791 580.813 257.524 584.996 257.524V240.524V223.524C584.818 223.524 585.239 223.501 586.049 223.711C586.886 223.928 588.349 224.451 589.925 225.677L579.488 239.096ZM680.903 274.592L675.129 290.581C675.305 290.645 675.481 290.705 675.659 290.763L680.903 274.592ZM668.459 266.432L655.552 277.495C655.693 277.66 655.838 277.822 655.985 277.982L668.459 266.432ZM661.727 251.744L678.382 248.337L661.727 251.744ZM661.931 229.916L645.319 226.305C645.251 226.618 645.192 226.934 645.141 227.251L661.931 229.916ZM663.563 221.756L647.015 217.862C646.942 218.173 646.877 218.487 646.822 218.801L663.563 221.756ZM665.399 213.8L648.923 209.611C648.888 209.751 648.854 209.891 648.822 210.032L665.399 213.8ZM673.559 192.992L688.256 201.536C688.284 201.488 688.312 201.439 688.34 201.39L673.559 192.992ZM685.391 178.304L674.584 165.181C674.52 165.234 674.456 165.287 674.392 165.341L685.391 178.304ZM700.691 169.736L706.185 185.824V185.824L700.691 169.736ZM736.595 169.736L729.598 185.229H729.598L736.595 169.736ZM746.795 177.08L733.929 188.191C738.114 193.037 744.667 195.121 750.882 193.581C757.097 192.042 761.92 187.141 763.36 180.902L746.795 177.08ZM747.407 174.428L763.972 178.25C764.032 177.991 764.085 177.731 764.133 177.469L747.407 174.428ZM749.651 170.552L739.031 157.277C738.802 157.461 738.577 157.65 738.357 157.846L749.651 170.552ZM791.879 170.552L778.279 180.752C778.535 181.093 778.804 181.425 779.085 181.746L791.879 170.552ZM792.899 174.428L809.528 177.961C809.563 177.797 809.595 177.633 809.625 177.469L792.899 174.428ZM772.703 269.492L756.074 265.959C756.04 266.122 756.007 266.286 755.977 266.451L772.703 269.492ZM770.255 273.368L759.635 260.093C759.406 260.277 759.181 260.466 758.961 260.662L770.255 273.368ZM727.823 273.368L714.223 283.568C714.479 283.909 714.748 284.241 715.029 284.562L727.823 273.368ZM727.007 269.492L710.395 265.881C710.354 266.07 710.316 266.26 710.281 266.451L727.007 269.492ZM728.027 264.8L744.639 268.411C746.207 261.201 742.944 253.803 736.563 250.098C730.182 246.393 722.139 247.228 716.655 252.164L728.027 264.8ZM714.767 273.776L722.006 289.158C722.069 289.128 722.132 289.098 722.194 289.067L714.767 273.776ZM730.067 235.016L715.589 226.106C715.417 226.385 715.254 226.668 715.099 226.956L730.067 235.016ZM732.719 228.692L749.099 233.242C749.123 233.156 749.146 233.069 749.169 232.983L732.719 228.692ZM734.555 221.144L751.178 224.706C751.194 224.63 751.21 224.554 751.225 224.478L734.555 221.144ZM735.779 213.596L719.07 210.463C719.018 210.74 718.973 211.019 718.935 211.299L735.779 213.596ZM735.779 208.088L719.378 212.561V212.561L735.779 208.088ZM733.127 204.62L723.697 218.765C723.922 218.914 724.149 219.058 724.381 219.197L733.127 204.62ZM721.703 204.824L730.269 219.508H730.269L721.703 204.824ZM717.827 208.904L732.795 216.964V216.964L717.827 208.904ZM715.175 215.228L699.047 209.852C698.938 210.181 698.838 210.513 698.749 210.848L715.175 215.228ZM712.319 228.692L695.468 226.445C695.452 226.568 695.437 226.691 695.423 226.814L712.319 228.692ZM712.115 235.016L695.165 236.32C695.198 236.748 695.247 237.176 695.313 237.601L712.115 235.016ZM697.223 277.04V260.04C692.97 260.04 689.317 259.449 686.148 258.421L680.903 274.592L675.659 290.763C682.553 292.999 689.781 294.04 697.223 294.04V277.04ZM680.903 274.592L686.677 258.602C684.231 257.719 682.411 256.479 680.933 254.882L668.459 266.432L655.985 277.982C661.307 283.729 667.783 287.929 675.129 290.581L680.903 274.592ZM668.459 266.432L681.366 255.368C680.35 254.183 679.153 252.104 678.382 248.337L661.727 251.744L645.072 255.151C646.749 263.352 650.04 271.065 655.552 277.495L668.459 266.432ZM661.727 251.744L678.382 248.337C677.7 245.002 677.557 239.913 678.721 232.581L661.931 229.916L645.141 227.251C643.585 237.055 643.306 246.518 645.072 255.151L661.727 251.744ZM661.931 229.916L678.543 233.527C679.255 230.253 679.847 227.304 680.304 224.71L663.563 221.756L646.822 218.801C646.464 220.831 645.967 223.322 645.319 226.305L661.931 229.916ZM663.563 221.756L680.111 225.649C680.667 223.285 681.289 220.59 681.976 217.567L665.399 213.8L648.822 210.032C648.149 212.994 647.547 215.602 647.015 217.862L663.563 221.756ZM665.399 213.8L681.875 217.989C683.61 211.164 685.802 205.758 688.256 201.536L673.559 192.992L658.862 184.447C654.517 191.922 651.268 200.387 648.923 209.611L665.399 213.8ZM673.559 192.992L688.34 201.39C690.919 196.85 693.653 193.588 696.39 191.266L685.391 178.304L674.392 165.341C668.153 170.635 662.999 177.166 658.778 184.594L673.559 192.992ZM685.391 178.304L696.198 191.427C699.27 188.896 702.576 187.056 706.185 185.824L700.691 169.736L695.198 153.648C687.654 156.224 680.76 160.095 674.584 165.181L685.391 178.304ZM700.691 169.736L706.185 185.824C709.848 184.573 713.962 183.88 718.643 183.88V166.88V149.88C710.541 149.88 702.686 151.091 695.198 153.648L700.691 169.736ZM718.643 166.88V183.88C725.4 183.88 728.584 184.771 729.598 185.229L736.595 169.736L743.592 154.243C736.174 150.893 727.39 149.88 718.643 149.88V166.88ZM736.595 169.736L729.598 185.229C731.943 186.288 733.212 187.361 733.929 188.191L746.795 177.08L759.661 165.968C755.21 160.815 749.679 156.992 743.592 154.243L736.595 169.736ZM746.795 177.08L763.36 180.902L763.972 178.25L747.407 174.428L730.842 170.605L730.23 173.257L746.795 177.08ZM747.407 174.428L764.133 177.469C763.925 178.612 763.51 179.773 762.884 180.854C762.266 181.922 761.558 182.713 760.945 183.258L749.651 170.552L738.357 157.846C734.527 161.25 731.687 165.856 730.681 171.387L747.407 174.428ZM749.651 170.552L760.271 183.827C759.762 184.233 758.941 184.777 757.794 185.214C756.618 185.662 755.3 185.92 753.935 185.92V168.92V151.92C747.964 151.92 742.888 154.192 739.031 157.277L749.651 170.552ZM753.935 168.92V185.92H788.411V168.92V151.92H753.935V168.92ZM788.411 168.92V185.92C787.081 185.92 785.203 185.67 783.162 184.71C781.066 183.724 779.426 182.281 778.279 180.752L791.879 170.552L805.479 160.352C801.099 154.512 794.64 151.92 788.411 151.92V168.92ZM791.879 170.552L779.085 181.746C777.976 180.479 776.96 178.762 776.408 176.663C775.863 174.592 775.926 172.747 776.173 171.387L792.899 174.428L809.625 177.469C810.768 171.181 809.235 164.571 804.673 159.357L791.879 170.552ZM792.899 174.428L776.27 170.895L756.074 265.959L772.703 269.492L789.332 273.025L809.528 177.961L792.899 174.428ZM772.703 269.492L755.977 266.451C756.233 265.043 756.764 263.692 757.514 262.505C758.245 261.347 759.043 260.567 759.635 260.093L770.255 273.368L780.875 286.643C784.943 283.388 788.317 278.648 789.429 272.533L772.703 269.492ZM770.255 273.368L758.961 260.662C759.646 260.053 760.655 259.347 762.003 258.808C763.375 258.259 764.808 258 766.175 258V275V292C772.242 292 777.532 289.645 781.549 286.074L770.255 273.368ZM766.175 275V258H731.495V275V292H766.175V275ZM731.495 275V258C732.847 258 734.557 258.256 736.359 259.057C738.177 259.865 739.599 261.01 740.617 262.173L727.823 273.368L715.029 284.562C719.335 289.484 725.292 292 731.495 292V275ZM727.823 273.368L741.423 263.168C742.457 264.547 743.252 266.225 743.642 268.081C744.023 269.891 743.932 271.44 743.733 272.533L727.007 269.492L710.281 266.451C709.273 271.995 710.217 278.226 714.223 283.568L727.823 273.368ZM727.007 269.492L743.619 273.103L744.639 268.411L728.027 264.8L711.415 261.189L710.395 265.881L727.007 269.492ZM728.027 264.8L716.655 252.164C713.714 254.81 710.614 256.894 707.34 258.484L714.767 273.776L722.194 289.067C728.44 286.034 734.18 282.134 739.399 277.436L728.027 264.8ZM714.767 273.776L707.529 258.394C705.864 259.177 702.695 260.04 697.223 260.04V277.04V294.04C705.895 294.04 714.422 292.726 722.006 289.158L714.767 273.776ZM719.867 240.524V257.524C724.4 257.524 729.74 256.706 734.757 253.78L726.191 239.096L717.625 224.412C719.378 223.389 720.502 223.524 719.867 223.524V240.524ZM726.191 239.096L734.757 253.78C739.264 251.151 742.697 247.419 745.035 243.076L730.067 235.016L715.099 226.956C715.288 226.605 715.596 226.141 716.059 225.653C716.527 225.16 717.064 224.739 717.625 224.412L726.191 239.096ZM730.067 235.016L744.545 243.925C746.63 240.537 748.084 236.895 749.099 233.242L732.719 228.692L716.339 224.142C715.994 225.384 715.68 225.958 715.589 226.106L730.067 235.016ZM732.719 228.692L749.169 232.983C750.012 229.748 750.695 226.96 751.178 224.706L734.555 221.144L717.932 217.582C717.6 219.135 717.058 221.379 716.27 224.401L732.719 228.692ZM734.555 221.144L751.225 224.478C751.725 221.979 752.187 219.092 752.623 215.893L735.779 213.596L718.935 211.299C718.555 214.083 718.201 216.229 717.885 217.81L734.555 221.144ZM735.779 213.596L752.488 216.729C753.181 213.033 753.49 208.418 752.18 203.615L735.779 208.088L719.378 212.561C719.12 211.613 719.085 210.911 719.085 210.587C719.085 210.266 719.119 210.205 719.07 210.463L735.779 213.596ZM735.779 208.088L752.18 203.615C750.59 197.784 746.897 193.056 741.874 190.042L733.127 204.62L724.381 219.197C723.387 218.601 722.28 217.699 721.306 216.425C720.327 215.146 719.714 213.792 719.378 212.561L735.779 208.088ZM733.127 204.62L742.557 190.475C737.364 187.013 731.724 186.396 727.823 186.396V203.396V220.396C728.025 220.396 727.717 220.418 727.061 220.266C726.395 220.113 725.14 219.726 723.697 218.765L733.127 204.62ZM727.823 203.396V186.396C723.235 186.396 718.03 187.286 713.137 190.14L721.703 204.824L730.269 219.508C728.641 220.458 727.515 220.396 727.823 220.396V203.396ZM721.703 204.824L713.137 190.14C708.631 192.769 705.198 196.501 702.859 200.844L717.827 208.904L732.795 216.964C732.606 217.315 732.299 217.779 731.835 218.267C731.367 218.759 730.83 219.181 730.269 219.508L721.703 204.824ZM717.827 208.904L702.859 200.844C701.335 203.674 700.09 206.725 699.047 209.852L715.175 215.228L731.303 220.604C731.892 218.835 732.415 217.67 732.795 216.964L717.827 208.904ZM715.175 215.228L698.749 210.848C698.134 213.155 697.534 215.634 696.948 218.272L713.543 221.96L730.138 225.648C730.64 223.39 731.128 221.381 731.601 219.608L715.175 215.228ZM713.543 221.96L696.948 218.272C696.32 221.098 695.817 223.831 695.468 226.445L712.319 228.692L729.17 230.939C729.365 229.473 729.678 227.718 730.138 225.648L713.543 221.96ZM712.319 228.692L695.423 226.814C695.075 229.944 694.923 233.173 695.165 236.32L712.115 235.016L729.065 233.712C729.035 233.323 729.019 232.335 729.215 230.569L712.319 228.692ZM712.115 235.016L695.313 237.601C696.136 242.953 698.744 248.487 703.922 252.515L714.359 239.096L724.796 225.677C726.012 226.623 727.036 227.824 727.776 229.169C728.495 230.476 728.796 231.644 728.917 232.431L712.115 235.016ZM714.359 239.096L703.922 252.515C709.42 256.791 715.685 257.524 719.867 257.524V240.524V223.524C719.689 223.524 720.11 223.501 720.92 223.711C721.757 223.928 723.22 224.451 724.796 225.677L714.359 239.096ZM799.255 311.516L783.471 317.829C783.568 318.072 783.671 318.313 783.779 318.55L799.255 311.516ZM799.867 307.436L813.794 317.185C813.951 316.96 814.103 316.732 814.249 316.5L799.867 307.436ZM824.551 268.268L838.933 277.332C841.295 273.584 842.101 269.063 841.179 264.731L824.551 268.268ZM804.763 175.244L787.994 178.039C788.036 178.287 788.083 178.535 788.135 178.781L804.763 175.244ZM805.987 170.96L793.351 159.587C793.328 159.613 793.304 159.639 793.281 159.666L805.987 170.96ZM847.603 170.552L833.187 179.562C833.442 179.97 833.714 180.367 834.003 180.752L847.603 170.552ZM849.031 173.816L832.162 175.924C832.194 176.178 832.231 176.43 832.274 176.682L849.031 173.816ZM856.987 220.328L840.23 223.194C841.427 230.191 846.845 235.707 853.819 237.03C860.793 238.353 867.855 235.203 871.53 229.13L856.987 220.328ZM885.139 173.816L899.682 182.618C899.792 182.438 899.897 182.256 900 182.072L885.139 173.816ZM887.995 170.552L898.432 183.971C898.493 183.923 898.554 183.875 898.615 183.827L887.995 170.552ZM932.671 171.164L916.27 175.637C916.308 175.775 916.347 175.912 916.388 176.049L932.671 171.164ZM932.263 175.244L946.564 184.436C946.893 183.923 947.195 183.392 947.468 182.847L932.263 175.244ZM846.379 308.864L832.078 299.672C831.882 299.978 831.695 300.29 831.518 300.608L846.379 308.864ZM843.319 312.128L833.57 298.201C833.273 298.409 832.982 298.626 832.699 298.853L843.319 312.128ZM802.723 313.76V296.76C804.567 296.76 807.218 297.212 809.867 298.926C812.508 300.635 813.989 302.849 814.731 304.481L799.255 311.516L783.779 318.55C785.201 321.678 787.599 325.014 791.397 327.472C795.202 329.933 799.247 330.76 802.723 330.76V313.76ZM799.255 311.516L815.039 305.202C815.812 307.135 816.187 309.498 815.812 311.998C815.451 314.401 814.517 316.152 813.794 317.185L799.867 307.436L785.94 297.687C782.214 303.01 780.484 310.362 783.471 317.829L799.255 311.516ZM799.867 307.436L814.249 316.5L838.933 277.332L824.551 268.268L810.169 259.204L785.485 298.372L799.867 307.436ZM824.551 268.268L841.179 264.731L821.391 171.707L804.763 175.244L788.135 178.781L807.923 271.805L824.551 268.268ZM804.763 175.244L821.532 172.449C821.763 173.836 821.776 175.643 821.211 177.619C820.645 179.601 819.668 181.157 818.693 182.254L805.987 170.96L793.281 159.666C788.738 164.776 786.888 171.398 787.994 178.039L804.763 175.244ZM805.987 170.96L818.623 182.332C817.492 183.589 816.059 184.588 814.494 185.214C812.995 185.813 811.762 185.92 811.087 185.92V168.92V151.92C805.088 151.92 798.41 153.966 793.351 159.587L805.987 170.96ZM811.087 168.92V185.92H843.523V168.92V151.92H811.087V168.92ZM843.523 168.92V185.92C843.169 185.92 841.709 185.892 839.759 185.112C837.582 184.241 835.024 182.501 833.187 179.562L847.603 170.552L862.019 161.542C856.707 153.043 847.81 151.92 843.523 151.92V168.92ZM847.603 170.552L834.003 180.752C833.466 180.036 832.472 178.399 832.162 175.924L849.031 173.816L865.9 171.707C865.318 167.056 863.372 163.244 861.203 160.352L847.603 170.552ZM849.031 173.816L832.274 176.682L840.23 223.194L856.987 220.328L873.744 217.462L865.788 170.95L849.031 173.816ZM856.987 220.328L871.53 229.13L899.682 182.618L885.139 173.816L870.595 165.013L842.443 211.525L856.987 220.328ZM885.139 173.816L900 182.072C899.454 183.054 898.82 183.669 898.432 183.971L887.995 170.552L877.558 157.133C874.722 159.339 872.184 162.13 870.278 165.56L885.139 173.816ZM887.995 170.552L898.615 183.827C897.635 184.611 896.547 185.175 895.471 185.519C894.426 185.853 893.587 185.92 893.095 185.92V168.92V151.92C887.885 151.92 882.248 153.379 877.375 157.277L887.995 170.552ZM893.095 168.92V185.92H929.203V168.92V151.92H893.095V168.92ZM929.203 168.92V185.92C928.088 185.92 925.301 185.719 922.263 183.753C918.879 181.564 917.018 178.379 916.27 175.637L932.671 171.164L949.072 166.691C947.916 162.452 945.273 158.146 940.733 155.208C936.539 152.494 932.222 151.92 929.203 151.92V168.92ZM932.671 171.164L916.388 176.049C915.978 174.683 915.798 173.131 915.959 171.512C916.119 169.915 916.576 168.604 917.058 167.641L932.263 175.244L947.468 182.847C949.934 177.914 950.7 172.098 948.954 166.279L932.671 171.164ZM932.263 175.244L917.962 166.052L832.078 299.672L846.379 308.864L860.68 318.056L946.564 184.436L932.263 175.244ZM846.379 308.864L831.518 300.608C832.302 299.197 833.207 298.455 833.57 298.201L843.319 312.128L853.068 326.055C856.151 323.897 859.096 320.978 861.24 317.12L846.379 308.864ZM843.319 312.128L832.699 298.853C833.679 298.069 834.767 297.505 835.843 297.161C836.887 296.826 837.727 296.76 838.219 296.76V313.76V330.76C843.428 330.76 849.066 329.301 853.939 325.403L843.319 312.128ZM838.219 313.76V296.76H802.723V313.76V330.76H838.219V313.76Z" fill="black" mask="url(#path-11-outside-1_91_91)"/>
<path d="M589.339 193.943C619.434 187.843 624.873 232.393 591.423 245.073C556.214 248.263 556.873 202.283 589.339 193.943Z" fill="#010101"/>
<path d="M724.339 193.943C754.434 187.843 759.873 232.393 726.423 245.073C691.214 248.263 691.873 202.283 724.339 193.943Z" fill="#010101"/>
<path d="M1090.83 104.417C1032.82 69.0583 958.122 87.1789 922.764 145.188C880.334 214.799 935.249 359.657 935.249 359.657C935.249 359.657 1089.17 342.089 1131.6 272.478C1166.96 214.469 1148.83 139.775 1090.83 104.417Z" fill="#010101"/>
<path d="M1003.68 247.386C1023.47 259.449 1049.3 253.184 1061.36 233.393C1073.42 213.602 1067.16 187.779 1047.37 175.715C1027.58 163.652 1001.75 169.917 989.69 189.708C977.627 209.499 983.892 235.322 1003.68 247.386Z" fill="white" stroke="white" stroke-width="25" stroke-miterlimit="4.13936" stroke-linejoin="round"/>
</svg>
